<svg id="text" xmlns="http://www.w3.org/2000/svg" viewBox="0 0 792 2500"><defs><style>.cls-1{fill:#f26f54;}.cls-2{font-size:20px;fill:#f2dca2;font-family:FuturaPT-ExtraBold, Futura PT;font-weight:800;}.cls-2,.cls-9{letter-spacing:0.01em;}.cls-3{letter-spacing:0.02em;}.cls-4{letter-spacing:0.01em;}.cls-5{letter-spacing:-0.01em;}.cls-6{letter-spacing:0.02em;}.cls-7{letter-spacing:-0.05em;}.cls-8{letter-spacing:0.93em;}.cls-10{letter-spacing:0em;}.cls-11{letter-spacing:-0.01em;}.cls-12{letter-spacing:-0.01em;}.cls-13{letter-spacing:0.04em;}.cls-14{letter-spacing:0.04em;}.cls-15{letter-spacing:0.02em;}.cls-16{letter-spacing:-0.01em;}.cls-17{letter-spacing:-0.02em;}.cls-18{font-size:12px;fill:#444d9f;font-family:FuturaPT-Light, Futura PT;font-weight:300;}.cls-19{letter-spacing:-0.06em;}.cls-20{letter-spacing:-0.03em;}.cls-21{letter-spacing:-0.01em;}.cls-22{letter-spacing:-0.02em;}.cls-23{letter-spacing:-0.01em;}.cls-24{letter-spacing:-0.03em;}.cls-25{letter-spacing:-0.05em;}.cls-26{letter-spacing:-0.02em;}.cls-27{letter-spacing:-0.01em;}.cls-28{letter-spacing:-0.13em;}.cls-29{letter-spacing:-0.08em;}.cls-30{letter-spacing:-0.14em;}.cls-31{letter-spacing:-0.05em;}.cls-32{letter-spacing:-0.09em;}.cls-33{letter-spacing:-0.02em;}.cls-34{letter-spacing:0.03em;}.cls-35{letter-spacing:-0.02em;}.cls-36{letter-spacing:-0.04em;}.cls-37{letter-spacing:-0.07em;}.cls-38{letter-spacing:0.03em;}.cls-39{letter-spacing:-0.05em;}.cls-40{letter-spacing:-0.03em;}</style></defs><path class="cls-1" d="M44.07,1414H92.73v2c0,10.64-.91,25-11.29,36.2-8.56,9.21-22.45,14.14-36.72,14.14C26.55,1466.3,15.52,1459,9,1452c-8.18-8.82-11.16-19.33-11.16-30.75,0-15.83,6.1-25.82,11.93-31.79,7-7.27,19-13.63,36.34-13.63a51.91,51.91,0,0,1,25.43,6.1,40.34,40.34,0,0,1,16.61,16l-29.33,10.9a13.51,13.51,0,0,0-11.94-6.62,16.09,16.09,0,0,0-11,4c-3.51,3.24-6.36,8.82-6.36,16.35,0,5.84,1.94,11.8,5.71,15.44a14.44,14.44,0,0,0,10.25,3.89c4.67,0,10.77-1.69,12.84-7.4H44.07Z"/><path class="cls-1" d="M103.63,1464.36v-60.6h29.71v3.76a10.59,10.59,0,0,1-.78,4h.52a19.18,19.18,0,0,1,7.4-7.4c5.71-3.11,13.1-2.72,13.49-2.72v30.75c-3.89-2.47-6.09-3.38-9.21-3.38a12.05,12.05,0,0,0-8,2.86c-3.12,2.72-3.64,6-3.64,8.95v23.75Z"/><path class="cls-1" d="M204.71,1410.64a14.17,14.17,0,0,1-1-5.19v-1.69h29.2v60.6H203.8l.13-2.08a26.74,26.74,0,0,1,1.17-5.58h-.91c-6.88,8.57-14.4,9.34-18.17,9.34a22.73,22.73,0,0,1-17.12-7.13c-5.2-5.32-9.09-13.5-9.09-24.53,0-10.77,3.77-19.33,9.47-25a24.14,24.14,0,0,1,17.91-7.27c3.76,0,10.77.78,16.87,9Zm-13,29.71a6.86,6.86,0,0,0,5.06,2.08,7.11,7.11,0,0,0,5.06-2,9.47,9.47,0,0,0,2.86-6.74,8.49,8.49,0,0,0-2.6-6.36,7.37,7.37,0,0,0-5.06-2,7.45,7.45,0,0,0-5.32,2.08,9,9,0,0,0-2.59,6.48A8.49,8.49,0,0,0,191.73,1440.35Z"/><path class="cls-1" d="M245.32,1464.36v-60.6h28.94v3.12a20.27,20.27,0,0,1-1.17,6.22l.65.13a42.45,42.45,0,0,1,8.17-7.91,19.29,19.29,0,0,1,11-3.25,21.37,21.37,0,0,1,14.79,5.45c6,5.71,6.75,13.24,6.75,17.91v38.93H285v-33c0-3-.91-4.28-1.3-4.67a4.17,4.17,0,0,0-3.37-1.3,5.09,5.09,0,0,0-3.77,1.43c-1.68,1.69-1.81,4.15-1.81,6v31.53Z"/><path class="cls-1" d="M367.68,1369.77h29.46v94.59H368.59v-2.73a44.23,44.23,0,0,1,.91-6.87l-.91-.13A20.08,20.08,0,0,1,349.26,1466a22.16,22.16,0,0,1-16-6.74c-6.1-6.1-9-16-9-25,0-10.77,3.77-19.72,9.35-25.3a22.65,22.65,0,0,1,16.35-6.88,20.38,20.38,0,0,1,11.41,3.38,33,33,0,0,1,6.49,6.36h.91a45.35,45.35,0,0,1-1.17-8.83ZM365.87,1426a6.46,6.46,0,0,0-4.93-2,6.8,6.8,0,0,0-5.06,1.82,11,11,0,0,0-2.86,7.27,10.9,10.9,0,0,0,3,7.52,6.83,6.83,0,0,0,5.06,2.08,7.07,7.07,0,0,0,4.93-1.82c.9-.78,2.85-3,2.85-7.26A11.16,11.16,0,0,0,365.87,1426Z"/><path class="cls-1" d="M64.18,1560.12c-8.17,3.11-17.77,3.5-21.8,3.5-11.29,0-23.35-4-31.92-12.58-8.17-8-12.58-19.73-12.58-31.92,0-13.37,5.06-24.79,13-32.83,6.1-6.1,16.48-13.11,32.7-13.11a65.18,65.18,0,0,1,20.63,3.38l.91,33c-3.63-3.63-10.38-8.56-18.3-8.56a17,17,0,0,0-12.58,5.32,18.29,18.29,0,0,0-4.54,12.33,17.09,17.09,0,0,0,5.06,12.45A17.84,17.84,0,0,0,47.57,1536c8.83,0,14.93-5.33,17.52-8.18Z"/><path class="cls-1" d="M118.29,1508a14.17,14.17,0,0,1-1-5.19v-1.69h29.2v60.6H117.38l.13-2.08a26.61,26.61,0,0,1,1.17-5.58h-.91c-6.88,8.57-14.4,9.34-18.16,9.34a22.75,22.75,0,0,1-17.13-7.13c-5.19-5.32-9.09-13.5-9.09-24.53,0-10.77,3.77-19.33,9.48-25a24.11,24.11,0,0,1,17.9-7.27c3.77,0,10.77.78,16.87,9Zm-13,29.71a6.87,6.87,0,0,0,5.07,2.08,7.14,7.14,0,0,0,5.06-2,9.52,9.52,0,0,0,2.85-6.75,8.52,8.52,0,0,0-2.59-6.35,7.71,7.71,0,0,0-10.39.13,9.06,9.06,0,0,0-2.59,6.48A8.54,8.54,0,0,0,105.31,1537.67Z"/><path class="cls-1" d="M158.9,1561.68v-60.6h28.94v3.11a20.28,20.28,0,0,1-1.17,6.23l.65.13a42.18,42.18,0,0,1,8.18-7.91,19.25,19.25,0,0,1,11-3.25,21.41,21.41,0,0,1,14.79,5.45c6,5.71,6.74,13.24,6.74,17.91v38.93H198.61v-33c0-3-.91-4.28-1.3-4.67a4.16,4.16,0,0,0-3.37-1.3,5,5,0,0,0-3.76,1.43c-1.69,1.68-1.82,4.15-1.82,6v31.53Z"/><path class="cls-1" d="M233,1501.08h31.79l7.26,24.91a32.54,32.54,0,0,1,1.3,7.92h.78a39.74,39.74,0,0,1,1.3-8.31l7-24.52h31.15l-41.14,90.31H241.17l17.91-35.81Z"/><path class="cls-1" d="M379.23,1553.11c-4.93,5.06-13.75,10.25-28.28,10.25s-23.36-5.19-28.29-10.25a31.53,31.53,0,0,1,0-43.47c4.93-5.06,13.75-10.25,28.29-10.25s23.35,5.19,28.28,10.25a31.5,31.5,0,0,1,0,43.47Zm-34-28.28a8.37,8.37,0,0,0-2.6,6.48,8.49,8.49,0,0,0,2.6,6.62,8.88,8.88,0,0,0,11.42,0,8.53,8.53,0,0,0,2.59-6.62,8.4,8.4,0,0,0-2.59-6.48,8.88,8.88,0,0,0-11.42,0Z"/><path class="cls-1" d="M397.79,1561.68v-60.6h28.93v3.11a20.26,20.26,0,0,1-1.16,6.23l.65.13a41.87,41.87,0,0,1,8.17-7.91,19.27,19.27,0,0,1,11-3.25,21.37,21.37,0,0,1,14.79,5.45c6,5.71,6.75,13.24,6.75,17.91v38.93H437.49v-33c0-3-.9-4.28-1.29-4.67a4.18,4.18,0,0,0-3.38-1.3,5.08,5.08,0,0,0-3.76,1.43c-1.69,1.68-1.82,4.15-1.82,6v31.53Z"/><text class="cls-2" transform="translate(261 1650.58)">S<tspan class="cls-3" x="12.56" y="0">k</tspan><tspan class="cls-4" x="25.94" y="0">y</tspan><tspan class="cls-5" x="38.16" y="0">w</tspan><tspan x="54.86" y="0">alk &amp; Eag</tspan><tspan class="cls-6" x="151.68" y="0">l</tspan><tspan x="158.54" y="0">e </tspan><tspan class="cls-7" x="175.86" y="0">W</tspan><tspan class="cls-4" x="195.88" y="0">alk</tspan><tspan class="cls-8"><tspan x="0" y="52" xml:space="preserve">			</tspan><tspan class="cls-9" x="69.9" y="52">Day Hi</tspan><tspan class="cls-10" x="136.88" y="52">k</tspan><tspan class="cls-9" x="149.8" y="52">ing</tspan><tspan x="0" y="104" xml:space="preserve">							</tspan><tspan class="cls-9" x="163.11" y="104">Colo</tspan><tspan class="cls-6" x="207.23" y="104">r</tspan><tspan class="cls-9" x="216.49" y="104">ado Ri</tspan><tspan class="cls-11" x="281.07" y="104">v</tspan><tspan class="cls-9" x="292.89" y="104">er </tspan><tspan class="cls-12" x="319.27" y="104">R</tspan><tspan class="cls-9" x="333.19" y="104">a</tspan><tspan class="cls-13" x="346.17" y="104">f</tspan><tspan class="cls-6" x="354.57" y="104">t</tspan><tspan class="cls-9" x="362.31" y="104">ing</tspan><tspan x="0" y="156" xml:space="preserve">			</tspan><tspan class="cls-9" x="69.9" y="156">Picnic Sp</tspan><tspan class="cls-14" x="158.06" y="156">o</tspan><tspan class="cls-9" x="171.28" y="156">ts</tspan><tspan x="0" y="208" xml:space="preserve">							</tspan><tspan class="cls-9" x="163.11" y="208">G</tspan><tspan class="cls-15" x="179.39" y="208">r</tspan><tspan class="cls-9" x="188.65" y="208">and Can</tspan><tspan class="cls-16" x="269.99" y="208">y</tspan><tspan class="cls-9" x="281.91" y="208">on </tspan><tspan class="cls-17" x="312.27" y="208">T</tspan><tspan class="cls-4" x="322.25" y="208">ours</tspan></tspan></text><text class="cls-18" transform="translate(71.38 883.88)"><tspan class="cls-19">T</tspan><tspan class="cls-20" x="4.3" y="0">h</tspan><tspan x="9.23" y="0">e G</tspan><tspan class="cls-21" x="27.08" y="0">r</tspan><tspan x="30.07" y="0">and </tspan><tspan class="cls-20" x="50.56" y="0">C</tspan><tspan x="58.32" y="0">anyon is considered one of </tspan><tspan x="0" y="18">t</tspan><tspan class="cls-20" x="2.33" y="18">h</tspan><tspan x="7.26" y="18">e finest </tspan><tspan class="cls-22" x="41.39" y="18">e</tspan><tspan x="46.93" y="18">xamples of arid-land e</tspan><tspan class="cls-22" x="148.15" y="18">r</tspan><tspan x="151.02" y="18">osion in </tspan><tspan x="0" y="36">t</tspan><tspan class="cls-20" x="2.33" y="36">h</tspan><tspan x="7.26" y="36">e world. Incised </tspan><tspan class="cls-23" x="81.19" y="36">b</tspan><tspan x="87.26" y="36">y t</tspan><tspan class="cls-24" x="97.52" y="36">h</tspan><tspan x="102.46" y="36">e </tspan><tspan class="cls-22" x="111.05" y="36">C</tspan><tspan x="118.93" y="36">olo</tspan><tspan class="cls-21" x="133.62" y="36">r</tspan><tspan x="136.61" y="36">ado Rive</tspan><tspan class="cls-25" x="176.33" y="36">r</tspan><tspan x="178.82" y="36">, </tspan><tspan x="0" y="54">t</tspan><tspan class="cls-20" x="2.33" y="54">h</tspan><tspan x="7.26" y="54">e canyon is immense, ave</tspan><tspan class="cls-21" x="121.79" y="54">r</tspan><tspan x="124.77" y="54">aging 4,000 </tspan><tspan x="0" y="72">feet deep for its entire </tspan><tspan class="cls-26" x="99.47" y="72">2</tspan><tspan class="cls-27" x="105.74" y="72">7</tspan><tspan x="112.17" y="72">7 miles. It is </tspan><tspan x="0" y="90">6,000 feet deep at its deepest point and </tspan><tspan class="cls-28" x="0" y="108">1</tspan><tspan x="5.08" y="108">8 miles at its widest. How</tspan><tspan class="cls-22" x="118.13" y="108">e</tspan><tspan x="123.67" y="108">ve</tspan><tspan class="cls-25" x="134.15" y="108">r</tspan><tspan x="136.64" y="108">, t</tspan><tspan class="cls-20" x="144.19" y="108">h</tspan><tspan x="149.12" y="108">e </tspan><tspan x="0" y="126">significance of t</tspan><tspan class="cls-20" x="69.9" y="126">h</tspan><tspan x="74.83" y="126">e G</tspan><tspan class="cls-21" x="92.69" y="126">r</tspan><tspan x="95.67" y="126">and </tspan><tspan class="cls-20" x="116.16" y="126">C</tspan><tspan x="123.92" y="126">anyon is not </tspan><tspan x="0" y="144">limited to its geolog</tspan><tspan class="cls-20" x="87.23" y="144">y</tspan><tspan x="91.99" y="144">.</tspan><tspan x="0" y="180">Is a </tspan><tspan class="cls-19" x="18.48" y="180">W</tspan><tspan x="29.57" y="180">orld Heritage Site, encompasses </tspan><tspan class="cls-29" x="0" y="198">1</tspan><tspan x="5.68" y="198">,</tspan><tspan class="cls-30" x="8.1" y="198">2</tspan><tspan class="cls-28" x="13.03" y="198">1</tspan><tspan x="18.11" y="198">8,</tspan><tspan class="cls-31" x="27.11" y="198">3</tspan><tspan class="cls-32" x="33.08" y="198">7</tspan><tspan x="38.6" y="198">5 acres and lies on t</tspan><tspan class="cls-24" x="129.36" y="198">h</tspan><tspan x="134.29" y="198">e </tspan><tspan class="cls-22" x="142.88" y="198">C</tspan><tspan x="150.77" y="198">olo</tspan><tspan class="cls-21" x="165.46" y="198">r</tspan><tspan x="168.44" y="198">ado </tspan><tspan x="0" y="216">Plateau in nort</tspan><tspan class="cls-22" x="63.42" y="216">h</tspan><tspan x="68.47" y="216">western Ar</tspan><tspan class="cls-22" x="115.83" y="216">i</tspan><tspan class="cls-21" x="117.79" y="216">z</tspan><tspan x="123.08" y="216">ona.</tspan><tspan class="cls-19" x="143.24" y="216">T</tspan><tspan class="cls-20" x="147.54" y="216">h</tspan><tspan x="152.47" y="216">e land is </tspan><tspan x="0" y="234">semi-arid and consists of </tspan><tspan class="cls-21" x="112.23" y="234">r</tspan><tspan x="115.22" y="234">aised plateaus </tspan><tspan x="0" y="252">and st</tspan><tspan class="cls-22" x="26.82" y="252">r</tspan><tspan x="29.69" y="252">uctu</tspan><tspan class="cls-21" x="47.83" y="252">r</tspan><tspan x="50.82" y="252">al basins </tspan><tspan class="cls-15" x="92.72" y="252">t</tspan><tspan x="95.29" y="252">ypical of t</tspan><tspan class="cls-20" x="139.26" y="252">h</tspan><tspan x="144.19" y="252">e </tspan><tspan x="0" y="270">sout</tspan><tspan class="cls-22" x="17.83" y="270">h</tspan><tspan x="22.88" y="270">western United States.D</tspan><tspan class="cls-21" x="128.99" y="270">r</tspan><tspan x="131.97" y="270">ainage </tspan><tspan x="0" y="288">s</tspan><tspan class="cls-23" x="4.01" y="288">y</tspan><tspan x="9.02" y="288">stems </tspan><tspan class="cls-22" x="35.78" y="288">h</tspan><tspan x="40.83" y="288">ave cut deeply t</tspan><tspan class="cls-33" x="112.42" y="288">h</tspan><tspan class="cls-22" x="117.49" y="288">r</tspan><tspan x="120.36" y="288">ough t</tspan><tspan class="cls-20" x="148.52" y="288">h</tspan><tspan x="153.45" y="288">e </tspan><tspan class="cls-22" x="162.04" y="288">r</tspan><tspan x="164.91" y="288">ock, </tspan><tspan x="0" y="306">forming nume</tspan><tspan class="cls-22" x="60.48" y="306">r</tspan><tspan x="63.35" y="306">ous steep-walled canyons. </tspan><tspan class="cls-25" x="0" y="324">F</tspan><tspan x="4.25" y="324">orests are found at </tspan><tspan class="cls-23" x="90.12" y="324">h</tspan><tspan x="95.3" y="324">ig</tspan><tspan class="cls-24" x="103.75" y="324">h</tspan><tspan x="108.68" y="324">er el</tspan><tspan class="cls-22" x="128.4" y="324">e</tspan><tspan x="133.94" y="324">vations, </tspan><tspan x="0" y="342">w</tspan><tspan class="cls-23" x="8.06" y="342">h</tspan><tspan x="13.25" y="342">ile t</tspan><tspan class="cls-20" x="28.58" y="342">h</tspan><tspan x="33.51" y="342">e lower el</tspan><tspan class="cls-22" x="78.33" y="342">e</tspan><tspan x="83.88" y="342">vations are made up of </tspan><tspan x="0" y="360">a series of desert basins.</tspan></text><text class="cls-18" transform="translate(307.35 883.88)"><tspan class="cls-19">T</tspan><tspan class="cls-20" x="4.3" y="0">h</tspan><tspan x="9.23" y="0">e G</tspan><tspan class="cls-21" x="27.08" y="0">r</tspan><tspan x="30.07" y="0">and </tspan><tspan class="cls-20" x="50.56" y="0">C</tspan><tspan x="58.32" y="0">anyon is one of t</tspan><tspan class="cls-20" x="132.37" y="0">h</tspan><tspan x="137.3" y="0">e most </tspan><tspan x="0" y="18">studied geologic landscapes in t</tspan><tspan class="cls-20" x="144.88" y="18">h</tspan><tspan x="149.81" y="18">e world. </tspan><tspan x="0" y="36">It o</tspan><tspan class="cls-34" x="14.05" y="36">f</tspan><tspan x="16.98" y="36">fe</tspan><tspan class="cls-22" x="25.34" y="36">r</tspan><tspan x="28.21" y="36">s an </tspan><tspan class="cls-22" x="49.31" y="36">e</tspan><tspan x="54.85" y="36">xcellent record of t</tspan><tspan class="cls-35" x="137.89" y="36">h</tspan><tspan x="142.96" y="36">ree of t</tspan><tspan class="cls-20" x="174.4" y="36">h</tspan><tspan x="179.33" y="36">e </tspan><tspan x="0" y="54">four e</tspan><tspan class="cls-21" x="25.78" y="54">r</tspan><tspan x="28.76" y="54">as of geological time, a rich and </tspan><tspan x="0" y="72">dive</tspan><tspan class="cls-22" x="18.88" y="72">r</tspan><tspan x="21.74" y="72">se fossil record, and a vast ar</tspan><tspan class="cls-21" x="152.16" y="72">r</tspan><tspan x="155.15" y="72">ay of </tspan><tspan x="0" y="90">geologic features and </tspan><tspan class="cls-22" x="101.62" y="90">r</tspan><tspan x="104.49" y="90">ock </tspan><tspan class="cls-15" x="123.58" y="90">t</tspan><tspan x="126.15" y="90">ypes, and </tspan><tspan x="0" y="108">nume</tspan><tspan class="cls-22" x="24.18" y="108">r</tspan><tspan x="27.05" y="108">ous caves containing </tspan><tspan class="cls-22" x="123.55" y="108">e</tspan><tspan x="129.09" y="108">xtensive and </tspan><tspan x="0" y="126">significant geological, paleontological, </tspan><tspan x="0" y="144">arc</tspan><tspan class="cls-20" x="14.62" y="144">h</tspan><tspan x="19.55" y="144">eological and biological resources.</tspan><tspan class="cls-19" x="0" y="162">T</tspan><tspan class="cls-20" x="4.3" y="162">h</tspan><tspan x="9.23" y="162">e </tspan><tspan class="cls-36" x="17.82" y="162">P</tspan><tspan x="22.67" y="162">ark contains s</tspan><tspan class="cls-22" x="83.22" y="162">e</tspan><tspan x="88.76" y="162">ve</tspan><tspan class="cls-21" x="99.24" y="162">r</tspan><tspan x="102.22" y="162">al major </tspan><tspan x="0" y="180">ecos</tspan><tspan class="cls-23" x="21.35" y="180">y</tspan><tspan x="26.36" y="180">stems. Its great biological dive</tspan><tspan class="cls-22" x="160.75" y="180">r</tspan><tspan x="163.62" y="180">si</tspan><tspan class="cls-15" x="169.83" y="180">t</tspan><tspan x="172.4" y="180">y </tspan><tspan x="0" y="198">can be a</tspan><tspan class="cls-9" x="40.57" y="198">t</tspan><tspan x="43.02" y="198">tributed to t</tspan><tspan class="cls-20" x="92.93" y="198">h</tspan><tspan x="97.86" y="198">e presence of five of </tspan><tspan x="0" y="216">t</tspan><tspan class="cls-20" x="2.33" y="216">h</tspan><tspan x="7.26" y="216">e s</tspan><tspan class="cls-22" x="19.86" y="216">e</tspan><tspan x="25.4" y="216">ven life </tspan><tspan class="cls-21" x="59.55" y="216">z</tspan><tspan x="64.85" y="216">ones and t</tspan><tspan class="cls-33" x="111.8" y="216">h</tspan><tspan x="116.87" y="216">ree of t</tspan><tspan class="cls-20" x="148.31" y="216">h</tspan><tspan x="153.24" y="216">e four </tspan><tspan x="0" y="234">desert </tspan><tspan class="cls-15" x="30.04" y="234">t</tspan><tspan x="32.6" y="234">ypes in North America.</tspan><tspan class="cls-19" x="0" y="270">T</tspan><tspan class="cls-20" x="4.3" y="270">h</tspan><tspan x="9.23" y="270">e five life </tspan><tspan class="cls-21" x="51.97" y="270">z</tspan><tspan x="57.26" y="270">ones represented are t</tspan><tspan class="cls-20" x="157.88" y="270">h</tspan><tspan x="162.81" y="270">e </tspan><tspan class="cls-20" x="0" y="288">L</tspan><tspan x="3.64" y="288">ower Sono</tspan><tspan class="cls-21" x="53.6" y="288">r</tspan><tspan x="56.59" y="288">an, Upper Sono</tspan><tspan class="cls-21" x="128.96" y="288">r</tspan><tspan x="131.95" y="288">an, </tspan><tspan class="cls-37" x="148.67" y="288">T</tspan><tspan class="cls-21" x="152.84" y="288">r</tspan><tspan x="155.83" y="288">ansition, </tspan><tspan class="cls-20" x="0" y="306">C</tspan><tspan x="7.76" y="306">anadian, and Hudsonian. </tspan><tspan class="cls-19" x="125.04" y="306">T</tspan><tspan class="cls-23" x="129.33" y="306">h</tspan><tspan x="134.51" y="306">is is </tspan><tspan x="0" y="324">equivalent to t</tspan><tspan class="cls-21" x="62.45" y="324">r</tspan><tspan x="65.44" y="324">aveling f</tspan><tspan class="cls-22" x="103.43" y="324">r</tspan><tspan x="106.29" y="324">om M</tspan><tspan class="cls-22" x="133.91" y="324">e</tspan><tspan x="139.45" y="324">xico to </tspan><tspan class="cls-20" x="0" y="342">C</tspan><tspan x="7.76" y="342">anada.</tspan></text><text/><text class="cls-18" transform="translate(546.2 883.88)"><tspan class="cls-19">T</tspan><tspan class="cls-20" x="4.3" y="0">h</tspan><tspan x="9.23" y="0">e </tspan><tspan class="cls-36" x="17.82" y="0">P</tspan><tspan x="22.67" y="0">ark also se</tspan><tspan class="cls-9" x="70.77" y="0">r</tspan><tspan x="74.01" y="0">ves as an ecological </tspan><tspan x="0" y="18">refuge, with relatively undisturbed </tspan><tspan x="0" y="36">remnants of dwindling ecos</tspan><tspan class="cls-23" x="122.34" y="36">y</tspan><tspan x="127.35" y="36">stems (such </tspan><tspan x="0" y="54">as boreal forest and desert riparian </tspan><tspan x="0" y="72">communities). It is </tspan><tspan class="cls-35" x="79.73" y="72">h</tspan><tspan x="84.79" y="72">ome to nume</tspan><tspan class="cls-22" x="142.99" y="72">r</tspan><tspan x="145.86" y="72">ous </tspan><tspan class="cls-21" x="164.16" y="72">r</tspan><tspan x="167.15" y="72">are, </tspan><tspan x="0" y="90">endemic (found only at G</tspan><tspan class="cls-21" x="115.22" y="90">r</tspan><tspan x="118.21" y="90">and </tspan><tspan class="cls-20" x="138.69" y="90">C</tspan><tspan x="146.46" y="90">anyon), </tspan><tspan x="0" y="108">and specially p</tspan><tspan class="cls-22" x="68.72" y="108">r</tspan><tspan x="71.59" y="108">otected (t</tspan><tspan class="cls-35" x="114.08" y="108">h</tspan><tspan x="119.15" y="108">reatened or </tspan><tspan x="0" y="126">endangered) plant and animal species.</tspan><tspan class="cls-19" x="0" y="162">T</tspan><tspan class="cls-20" x="4.3" y="162">h</tspan><tspan x="9.23" y="162">e dive</tspan><tspan class="cls-22" x="36.69" y="162">r</tspan><tspan x="39.56" y="162">se, beautiful colo</tspan><tspan class="cls-22" x="115.38" y="162">r</tspan><tspan x="118.25" y="162">s of t</tspan><tspan class="cls-20" x="138.98" y="162">h</tspan><tspan x="143.91" y="162">e </tspan><tspan x="0" y="180">mil</tspan><tspan class="cls-38" x="12.24" y="180">e</tspan><tspan x="18.41" y="180">-deep G</tspan><tspan class="cls-21" x="58.04" y="180">r</tspan><tspan x="61.03" y="180">and </tspan><tspan class="cls-20" x="81.51" y="180">C</tspan><tspan x="89.28" y="180">anyon are a sig</tspan><tspan class="cls-35" x="159.6" y="180">h</tspan><tspan x="164.66" y="180">t to </tspan><tspan x="0" y="198">be</tspan><tspan class="cls-35" x="11.99" y="198">h</tspan><tspan x="17.05" y="198">old. </tspan><tspan class="cls-39" x="36.91" y="198">K</tspan><tspan x="42.77" y="198">eeping t</tspan><tspan class="cls-20" x="79.43" y="198">h</tspan><tspan x="84.36" y="198">e G</tspan><tspan class="cls-21" x="102.21" y="198">r</tspan><tspan x="105.2" y="198">and </tspan><tspan class="cls-20" x="125.69" y="198">C</tspan><tspan x="133.45" y="198">anyon </tspan><tspan x="0" y="216">g</tspan><tspan class="cls-21" x="6.24" y="216">r</tspan><tspan x="9.23" y="216">and is a d</tspan><tspan class="cls-9" x="53.9" y="216">r</tspan><tspan x="57.14" y="216">y climate t</tspan><tspan class="cls-22" x="102.06" y="216">h</tspan><tspan x="107.11" y="216">at </tspan><tspan class="cls-20" x="118.43" y="216">k</tspan><tspan x="122.81" y="216">eeps t</tspan><tspan class="cls-20" x="149.72" y="216">h</tspan><tspan x="154.66" y="216">e </tspan><tspan x="0" y="234">go</tspan><tspan class="cls-21" x="12.48" y="234">r</tspan><tspan x="15.47" y="234">ge f</tspan><tspan class="cls-22" x="32.87" y="234">r</tspan><tspan x="35.74" y="234">om widening, leading to its </tspan><tspan class="cls-22" x="0" y="252">e</tspan><tspan x="5.54" y="252">xt</tspan><tspan class="cls-21" x="12.67" y="252">r</tspan><tspan x="15.66" y="252">aordina</tspan><tspan class="cls-9" x="51.11" y="252">r</tspan><tspan x="54.35" y="252">y dept</tspan><tspan class="cls-40" x="82.79" y="252">h</tspan><tspan x="87.73" y="252">s.</tspan></text></svg>