<svg id="sunset" xmlns="http://www.w3.org/2000/svg" xmlns:xlink="http://www.w3.org/1999/xlink" viewBox="0 0 792 2500"><defs><style>.cls-1{fill:url(#New_Gradient_Swatch);}.cls-2{fill:#f4533e;}.cls-3{fill:#f6af6a;}.cls-4{fill:#f2503a;}.cls-5{font-size:19.02px;fill:#f2dca2;font-family:FuturaPT-Light, Futura PT;font-weight:300;}.cls-13,.cls-5{letter-spacing:0.01em;}.cls-6{letter-spacing:-0.03em;}.cls-7{letter-spacing:0.04em;}.cls-8{letter-spacing:-0.11em;}.cls-9{letter-spacing:1.52em;}.cls-10{letter-spacing:-0.16em;}.cls-11{letter-spacing:0.01em;}.cls-12{letter-spacing:0.05em;}.cls-14{letter-spacing:-0.03em;}.cls-15{letter-spacing:-0.04em;}.cls-16{letter-spacing:-0.02em;}.cls-17{fill:#efa775;}.cls-18{fill:#f48462;}</style><linearGradient id="New_Gradient_Swatch" x1="395.67" y1="56.41" x2="395.67" y2="523.45" gradientUnits="userSpaceOnUse"><stop offset="0" stop-color="#183861"/><stop offset="1" stop-color="#c75164"/></linearGradient></defs><rect class="cls-1" x="71.17" y="56.41" width="649" height="467.04"/><circle class="cls-2" cx="530.62" cy="226.41" r="155"/><path class="cls-3" d="M171.17,216s53.85-9.05,75.05,0,1.94,6.78,14.77,4.52-16,2.26,6.42,9,.94-4.52,22.92,0,47.65-6.79,60.48,0-4.72-.07,2.45,2.23,11.75-2.84,14.28.86-3.9,12.74,2.52,21.79-3.21,13.57,6.41,15.83,12.84,2.27,12.84,2.27c6.41,9,9.62,4.52,19.24,9s12.83,2.26,12.83,11.31,6.64,4.83,9.73,18.25,3.1,13.42,19.14,17.94,12.83-9.05,32.08,11.31,6.42,2.26,22.46,13.57,35.28,15.83,44.91,22.62,11.64,4.52-37.49,0-78-2.26-97.24,2.26-3.21-6.78-32.08-4.52-38.49,6.78-60.95,2.26-16-6.79-64.16-6.79-86.61,3.13-86.61,3.13"/><path class="cls-4" d="M720.17,468.82s-12.49,14.06-51.74,8.09-37.26-2-43.26,6-40,7-59,5-25.14-9.18-41.57,1.41-10.55,1,21,7.78,28.24,14.7,46.4,13.75S602.17,499,645.17,504s59,22.56,75,17.28"/><text class="cls-5" transform="translate(407.21 171.82)">ARI<tspan class="cls-6" x="24.88" y="0">Z</tspan><tspan x="34.8" y="0">ON</tspan><tspan class="cls-7" x="65.31" y="0">A</tspan><tspan x="77.23" y="0">, U.S.</tspan><tspan x="0" y="19.02">36°</tspan><tspan class="cls-8" x="30.92" y="19.02">1</tspan><tspan x="39.16" y="19.02">8’N</tspan><tspan class="cls-9" x="69.4" y="19.02">	</tspan><tspan class="cls-10"><tspan x="0" y="38.04">1</tspan><tspan class="cls-11" x="7.44" y="38.04">2°36</tspan><tspan class="cls-12" x="48.97" y="38.04">’</tspan><tspan class="cls-13" x="54.3" y="38.04">W</tspan></tspan><tspan x="0" y="57.05">E</tspan><tspan class="cls-14" x="9.01" y="57.05">S</tspan><tspan class="cls-15" x="18.2" y="57.05">T</tspan><tspan x="25.35" y="57.05">.FEBRUA</tspan><tspan class="cls-16" x="89.33" y="57.05">R</tspan><tspan x="97.81" y="57.05">Y 26, </tspan></text><path class="cls-17" d="M720.17,118.75s-50.8-10.38-54,3.16,6.32,23.54-19.12,26.88-3.18,10-15.9,16.68-22.25,0-28.61,13.35-15.9,16.69-22.26,20-15.9,13.35-12.72,20-6.36-16.69-9.54,10,15.9,65.2,0,81S513.5,329,510.32,339s6.36,16.69-9.54,26.7-67.53,23.36-60.42,23.36c6.36,0,25.44,0,19.08,3.34s-19.08,3.34-25.44,10,19.08-10,28.62,6.68c8.81,15.41-42.22.46-35,6.67,9.52,8.17,4.6-.87,27.52,11.17,19.08,10-2.09-7.83,33.5-4.49,21.79,2,15.29-10,28,10,7.05,11.11,12.71,6.67,44.51,6.67s70.63-10,46.45,1.67,112.53,0,112.53,0"/><path class="cls-18" d="M71.17,155.63s66-3.46,77.77,5.19,9.42,22.46,30.63,34.56-7.07-3.45,18.85,8.64-21.2,25.93,11.79,34.57,16.49,0,42.41,17.28,9.93,4.78,20.28,19.67-5.63-3.22,0,20.53-3.52,17.07,10.49,34.24,18.72,18.89,42.28,22.35,16.5-1.73,33,19,48.09,8.82,57.51,12.28-32.57,2.81-42,8,15.65-1.19,18,4,5.8,1.71-15,7c-2.28.58,51,9,39,3-11-5.49-26.86,3.36-41,12s-12.36-11.64-39-3S288.1,426.41,298.64,431,71.17,440,71.17,440"/><path class="cls-4" d="M76.06,521c9.78,1.63,122.27-6,146.72-6s124.71-25.8,111.14-30c-9.58-3-40.29-20.41-57.53-30.41a86,86,0,0,0-20.92-8.72c-6.7-1.79-15.2-5.36-18-12.22-10.08-24.55-19.77-24.24-17.11-43.67A146.5,146.5,0,0,0,213,320.51c-3.62-10.27-12.23-5.95-19.56-9.92-5.76-3.12,24.45-21.84-9.78-33.75S71.17,263,71.17,263V521.23Z"/></svg>