<svg id="title" xmlns="http://www.w3.org/2000/svg" xmlns:xlink="http://www.w3.org/1999/xlink" viewBox="0 0 792 2500"><defs><style>.cls-1{fill:url(#linear-gradient);}.cls-2{fill:url(#linear-gradient-2);}.cls-3{fill:url(#linear-gradient-3);}.cls-4{fill:url(#linear-gradient-4);}.cls-5{fill:url(#linear-gradient-5);}.cls-6{fill:url(#linear-gradient-6);}.cls-7{fill:url(#linear-gradient-7);}.cls-8{fill:url(#linear-gradient-8);}.cls-9{fill:url(#linear-gradient-9);}.cls-10{fill:url(#linear-gradient-10);}.cls-11{fill:url(#linear-gradient-11);}</style><linearGradient id="linear-gradient" x1="97.51" y1="807.54" x2="97.51" y2="547.54" gradientUnits="userSpaceOnUse"><stop offset="0" stop-color="#183861"/><stop offset="1" stop-color="#c75164"/></linearGradient><linearGradient id="linear-gradient-2" x1="158.16" y1="804.59" x2="158.16" y2="550.49" xlink:href="#linear-gradient"/><linearGradient id="linear-gradient-3" x1="215.52" y1="804.59" x2="215.52" y2="550.49" xlink:href="#linear-gradient"/><linearGradient id="linear-gradient-4" x1="276.1" y1="804.59" x2="276.1" y2="550.49" xlink:href="#linear-gradient"/><linearGradient id="linear-gradient-5" x1="336.54" y1="804.59" x2="336.54" y2="550.49" xlink:href="#linear-gradient"/><linearGradient id="linear-gradient-6" x1="408.83" y1="807.54" x2="408.83" y2="547.54" xlink:href="#linear-gradient"/><linearGradient id="linear-gradient-7" x1="460.93" y1="804.59" x2="460.93" y2="550.49" xlink:href="#linear-gradient"/><linearGradient id="linear-gradient-8" x1="521.51" y1="804.59" x2="521.51" y2="550.49" xlink:href="#linear-gradient"/><linearGradient id="linear-gradient-9" x1="580.48" y1="804.59" x2="580.48" y2="550.49" xlink:href="#linear-gradient"/><linearGradient id="linear-gradient-10" x1="635.87" y1="807.54" x2="635.87" y2="547.54" xlink:href="#linear-gradient"/><linearGradient id="linear-gradient-11" x1="695.68" y1="804.59" x2="695.68" y2="550.49" xlink:href="#linear-gradient"/></defs><path class="cls-1" d="M98.92,702.28V652.43h23.56v147A29.82,29.82,0,0,1,112,805.32a37.34,37.34,0,0,1-12.27,2.22q-11.51,0-17.18-10.71T74.72,759q-2.18-27.13-2.17-81.43T75,595.92q2.46-27.33,8.63-37.86t18.51-10.52a31.64,31.64,0,0,1,10.38,2,32.44,32.44,0,0,1,9.81,5.36V602.2q-10.65-3.33-14.72-3.33c-4.68,0-7.83,1.18-9.47,3.51s-2.75,8.68-3.36,19-.91,29.06-.91,56.14q0,39.53.35,55t1.68,20.49q1.34,5,4.56,5a8,8,0,0,0,2.1-.18,3,3,0,0,1,.7-.19v-55.4Z"/><path class="cls-2" d="M162.72,804.59,156,721.49h-2.94v83.1h-21.6V550.49H159.5q9.67,0,14.58,9t6.66,27q1.75,17.93,1.75,49.31,0,28.44-1.4,45.79t-5.61,27.33l9.4,95.66Zm-9.67-133h2.66a3.71,3.71,0,0,0,3.5-1.66c.66-1.11,1.1-4,1.34-8.68s.35-12.93.35-24.74q0-17.37-.35-24.38c-.24-4.67-.68-7.57-1.34-8.68a3.71,3.71,0,0,0-3.5-1.66h-2.66Z"/><path class="cls-3" d="M223.16,804.59l-1.68-45.8h-12.2l-1.68,45.8H186.14l13-254.1h32.68l13,254.1Zm-7.29-200.54h-1L211.1,708.93h8.56Z"/><path class="cls-4" d="M283.46,804.59l-12.2-112.28h-.56V804.59H250.23V550.49H270l10.66,98.24h.84V550.49H302v254.1Z"/><path class="cls-5" d="M311.51,550.49h24.26q12.62,0,18,11.64t6.59,35.45q1.19,23.82,1.19,80t-1.19,80q-1.19,23.82-6.59,35.45t-18,11.64H311.51Zm24.26,202.76q2.39,0,3.22-3.51t1.06-17.36q.21-13.85.21-54.84t-.21-54.84q-.21-13.86-1.06-17.36t-3.22-3.51h-2.95V753.25Z"/><path class="cls-6" d="M422.08,805.51a15.65,15.65,0,0,1-7.22,2q-11.36,0-16.76-12.19T391,756.76q-1.68-26.4-1.68-79.22,0-52.08,1.82-78.85t7.22-39q5.4-12.19,16.48-12.19a18.79,18.79,0,0,1,7.78,1.66,12.1,12.1,0,0,1,5.4,4.25v47.27a28,28,0,0,0-9.25-1.85q-4.07,0-5.61,4.44t-1.89,18.83q-.36,14.4-.35,55.4t.35,55.4q.34,14.4,1.89,18.83c1,3,2.9,4.43,5.61,4.43a23.48,23.48,0,0,0,9.53-1.84v46.16A19.46,19.46,0,0,1,422.08,805.51Z"/><path class="cls-7" d="M468.57,804.59l-1.68-45.8h-12.2L453,804.59H431.55l13-254.1h32.68l13,254.1Zm-7.29-200.54h-1l-3.79,104.88h8.55Z"/><path class="cls-8" d="M528.87,804.59l-12.2-112.28h-.56V804.59H495.64V550.49h19.77l10.66,98.24h.84V550.49h20.47v254.1Z"/><path class="cls-9" d="M569.68,804.59V718.9L551.87,550.49h21.59l6.88,106.74h1.54l6.17-106.74h21L591.27,718.9v85.69Z"/><path class="cls-10" d="M617.85,795.54q-5.4-12-6.59-36.2t-1.2-81.8q0-57.62,1.2-82t6.59-36.19q5.4-11.82,18-11.82t18,11.82q5.4,11.82,6.59,36.19t1.19,82q0,57.62-1.19,81.8t-6.59,36.2q-5.4,12-18,12T617.85,795.54Zm21.1-43q.7-3.69.92-17.73t.21-57.24q0-43.21-.21-57.25T639,602.57c-.46-2.46-1.49-3.7-3.08-3.7s-2.62,1.24-3.09,3.7-.77,8.37-.91,17.72-.21,28.44-.21,57.25.07,47.89.21,57.24.44,15.27.91,17.73,1.5,3.69,3.09,3.69S638.49,755,639,752.51Z"/><path class="cls-11" d="M703,804.59l-12.2-112.28h-.56V804.59H669.8V550.49h19.78l10.65,98.24h.85V550.49h20.47v254.1Z"/></svg>